<svg width="253" height="235" viewBox="0 0 253 235" fill="none" xmlns="http://www.w3.org/2000/svg">
<g opacity="0.2" filter="url(#filter0_f_7022_4980)">
<ellipse cx="133.045" cy="211.171" rx="78.9585" ry="9.58782" fill="url(#paint0_radial_7022_4980)"/>
</g>
<path d="M192.168 151.124C190.777 154.429 189.149 157.64 187.272 160.713C185.393 163.79 186.653 167.982 190.067 169.144L205.972 174.559C210.504 176.102 214.569 171.275 212.278 167.072L203.035 150.111C200.72 145.864 194.045 146.666 192.168 151.124Z" fill="url(#paint1_linear_7022_4980)"/>
<path fill-rule="evenodd" clip-rule="evenodd" d="M47.4984 167.072L56.7417 150.111C59.0564 145.864 65.7318 146.666 67.6085 151.124C67.6697 151.269 67.7314 151.415 67.7936 151.56C67.2171 153.993 65.8973 159.65 65.2303 162.815C64.5633 165.98 65.5082 169.181 66.064 170.385L53.8043 174.559C49.2731 176.102 45.2079 171.275 47.4984 167.072Z" fill="url(#paint2_linear_7022_4980)"/>
<path d="M68.7243 153.644C69.2474 154.769 69.7993 155.881 70.3802 156.979C71.0494 158.244 71.7573 159.489 72.5044 160.713C74.3836 163.79 73.1244 167.979 69.7125 169.143L69.7097 169.144L66.064 170.385C65.5082 169.181 64.5633 165.98 65.2303 162.815C65.8973 159.65 67.2171 153.993 67.7936 151.56C68.0931 152.259 68.4033 152.954 68.7243 153.644Z" fill="#EDEBF4"/>
<path d="M68.7243 153.644C69.2474 154.769 69.7993 155.881 70.3802 156.979C71.0494 158.244 71.7573 159.489 72.5044 160.713C74.3836 163.79 73.1244 167.979 69.7125 169.143L69.7097 169.144L66.064 170.385C65.5082 169.181 64.5633 165.98 65.2303 162.815C65.8973 159.65 67.2171 153.993 67.7936 151.56C68.0931 152.259 68.4033 152.954 68.7243 153.644Z" fill="url(#paint3_linear_7022_4980)"/>
<g opacity="0.2" filter="url(#filter1_f_7022_4980)">
<ellipse cx="128.159" cy="148.828" rx="43.0786" ry="38.6705" fill="#573EC9"/>
</g>
<path d="M174.779 166.722C181.271 158.746 185.828 149.12 188.621 139.054C183.608 145.435 177.236 149.738 169.39 152.566L166.321 158.588C164.79 161.591 166.585 165.221 169.9 165.828L174.779 166.722Z" fill="#4A34AF"/>
<path d="M72.7332 140.975C75.2722 150.342 79.302 159.255 85.1443 166.722L90.0228 165.828C93.3383 165.221 95.1328 161.591 93.6023 158.588L90.5721 152.643C83.4454 150.107 77.5272 146.367 72.7332 140.975Z" fill="#412CA1"/>
<path fill-rule="evenodd" clip-rule="evenodd" d="M166.321 158.588C164.79 161.591 166.585 165.221 169.9 165.828L174.779 166.722C164.758 179.031 150.127 187.41 130.258 187.41C126.646 186.576 117.087 183.241 107.75 176.572C104.504 174.253 102.071 171.409 100.272 168.488C105.615 166.702 113.062 164.763 122.757 163.232C141.765 160.231 159.72 158.886 166.321 158.588Z" fill="#F3F2F9"/>
<path d="M90.5721 172.715C99.9844 181.671 112.941 187.41 130.258 187.41C126.646 186.576 117.087 183.241 107.75 176.572C104.504 174.253 102.071 171.409 100.272 168.488C95.1386 170.204 91.9478 171.779 90.5721 172.715Z" fill="#ECEAF8"/>
<path fill-rule="evenodd" clip-rule="evenodd" d="M128.857 157.433H130.892C146.403 157.433 159.151 156.256 169.39 152.566L166.321 158.588C159.72 158.886 141.765 160.231 122.757 163.232C113.062 164.763 105.615 166.702 100.272 168.488C96.8947 163.005 95.7513 157.253 95.6606 154.201C104.902 156.614 115.918 157.433 128.857 157.433Z" fill="#D8D6E4"/>
<path d="M93.6023 158.588C95.1328 161.591 93.3383 165.221 90.0228 165.828L85.1443 166.722L85.2019 166.795C86.8465 168.89 88.6342 170.871 90.5721 172.715C91.9478 171.779 95.1386 170.204 100.272 168.488C96.8947 163.005 95.7513 157.253 95.6606 154.201C93.9003 153.741 92.2045 153.223 90.5721 152.643L93.6023 158.588Z" fill="#E5E2F7"/>
<mask id="mask0_7022_4980" style="mask-type:alpha" maskUnits="userSpaceOnUse" x="72" y="139" width="117" height="49">
<path d="M174.779 166.722C181.272 158.746 185.829 149.12 188.621 139.054C183.609 145.435 177.237 149.738 169.39 152.566L166.321 158.588C164.791 161.591 166.585 165.221 169.901 165.828L174.779 166.722Z" fill="#4A34AF"/>
<path d="M72.7336 140.975C75.2726 150.342 79.3025 159.255 85.1447 166.722L90.0233 165.828C93.3387 165.221 95.1332 161.591 93.6027 158.588L90.5725 152.643C83.4458 150.107 77.5276 146.367 72.7336 140.975Z" fill="#412CA1"/>
<path fill-rule="evenodd" clip-rule="evenodd" d="M166.321 158.588C164.791 161.591 166.585 165.221 169.901 165.828L174.779 166.722C164.759 179.031 150.128 187.41 130.258 187.41C126.646 186.576 117.088 183.241 107.75 176.572C104.504 174.253 102.071 171.409 100.272 168.488C105.615 166.702 113.062 164.763 122.757 163.232C141.766 160.231 159.72 158.886 166.321 158.588Z" fill="#F3F2F9"/>
<path d="M90.5725 172.715C99.9848 181.671 112.941 187.41 130.258 187.41C126.646 186.576 117.088 183.241 107.75 176.572C104.504 174.253 102.071 171.409 100.272 168.488C95.1391 170.204 91.9483 171.779 90.5725 172.715Z" fill="#ECEAF8"/>
<path fill-rule="evenodd" clip-rule="evenodd" d="M128.858 157.433H130.892C146.403 157.433 159.152 156.256 169.39 152.566L166.321 158.588C159.72 158.886 141.766 160.231 122.757 163.232C113.062 164.763 105.615 166.702 100.272 168.488C96.8951 163.005 95.7517 157.253 95.661 154.201C104.902 156.614 115.919 157.433 128.858 157.433Z" fill="#D8D6E4"/>
<path d="M93.6027 158.588C95.1332 161.591 93.3387 165.221 90.0233 165.828L85.1447 166.722L85.2024 166.795C86.8469 168.89 88.6346 170.871 90.5725 172.715C91.9483 171.779 95.1391 170.204 100.272 168.488C96.8951 163.005 95.7517 157.253 95.661 154.201C93.9008 153.741 92.2049 153.223 90.5725 152.643L93.6027 158.588Z" fill="#E5E2F7"/>
</mask>
<g mask="url(#mask0_7022_4980)">
<path d="M107.458 169.068L104.54 181.157L100.46 200.015H164.125L157.898 181.991L152.062 169.068H107.458Z" fill="#E9E8F1"/>
<path d="M91.3652 161.63L107.458 169.068M107.458 169.068L104.54 181.157L100.46 200.015H164.125L157.898 181.991L152.062 169.068M107.458 169.068H152.062M152.062 169.068L167.903 159.897" stroke="url(#paint4_linear_7022_4980)" stroke-width="4.94797" stroke-linecap="round"/>
</g>
<g opacity="0.5" filter="url(#filter2_f_7022_4980)">
<ellipse cx="130.678" cy="97.7846" rx="72.1171" ry="38.7681" fill="#573EC9"/>
</g>
<path d="M126.501 65.4046C126.501 65.4046 116.614 66.0226 128.973 51.1911C141.333 36.3595 151.221 33.8876 151.221 33.8876" stroke="#4A34AD" stroke-width="4.94384" stroke-linecap="round"/>
<circle cx="153.074" cy="32.0337" r="8.03374" fill="#4A34AD"/>
<path d="M197.977 72.7997C186.212 52.1405 164.36 47.3442 130.117 47.3442H127.906C93.6623 47.3442 71.8099 52.1407 60.0454 72.801C57.7141 76.4717 55.8161 80.5179 54.4398 84.8618C52.7218 90.2843 51.8168 96.1708 51.897 102.37C51.7525 113.535 54.8037 123.686 60.0454 131.939C71.8099 152.599 93.6623 157.396 127.906 157.396H130.117C142.246 157.396 152.821 156.794 161.944 155.099C178.575 152.008 190.379 145.282 197.977 131.94C203.219 123.687 206.271 113.536 206.126 102.37C206.271 91.2042 203.219 81.0527 197.977 72.7997Z" fill="#FBFAFF"/>
<g filter="url(#filter3_i_7022_4980)">
<path fill-rule="evenodd" clip-rule="evenodd" d="M193.567 116.409C194.462 113.386 194.995 110.839 195.214 107.187C196.251 89.9156 186.789 75.4435 173.068 68.813C159.757 63.6978 154.174 65.8538 147.903 68.2752C145.501 69.2027 142.998 70.1692 139.921 70.7808C136.765 71.4082 133.133 71.9366 129.011 72.2589C124.888 71.9366 121.256 71.4082 118.1 70.7808C115.023 70.1692 112.52 69.2027 110.118 68.2752C103.847 65.8538 98.2637 63.6978 84.9526 68.813C74.5313 73.8492 66.5667 83.4092 63.7934 95.2835C63.7934 95.2835 76.2215 99.9633 81.4883 106.122C84.8186 110.016 85.1347 114.322 85.4508 118.629C85.7667 122.934 86.0827 127.239 89.4087 131.134C97.9352 141.118 121.09 142.389 121.09 142.389C121.09 142.389 137.416 144.356 147.903 144.056C159.002 143.739 176.116 140.525 176.116 140.525C184.413 135.624 190.133 128.011 193.567 116.409Z" fill="#F3F2F9"/>
<path d="M128.061 148.687H129.96C150.139 148.687 165.312 146.906 176.116 140.525C176.116 140.525 159.002 143.739 147.903 144.056C137.416 144.356 121.09 142.389 121.09 142.389C121.09 142.389 97.9352 141.118 89.4087 131.134C86.0827 127.239 85.7667 122.934 85.4508 118.629C85.1347 114.322 84.8186 110.016 81.4883 106.122C76.2215 99.9633 63.7934 95.2835 63.7934 95.2835C62.9155 99.0427 62.5578 103.034 62.8071 107.187C63.0264 110.839 63.5591 113.386 64.454 116.409C72.3591 143.119 92.386 148.687 128.061 148.687Z" fill="#F3F2F9"/>
</g>
<path d="M72.3173 106.122C70.3416 107.235 69.6133 109.447 70.233 111.541C70.8527 113.635 71.5469 115.599 72.3173 117.44C81.3743 139.09 100.962 143.819 133.84 143.819C133.84 143.819 137.557 143.777 139.849 143.223C141.701 142.775 144.434 141.555 144.434 141.555C135.958 141.416 115.087 139.971 99.4133 135.302C86.6973 131.514 81.3527 121.069 79.6399 113.625C79.2414 111.894 79.8962 110.604 78.9871 109.04C77.5582 106.582 74.7945 104.727 72.3173 106.122Z" fill="white"/>
<mask id="mask1_7022_4980" style="mask-type:alpha" maskUnits="userSpaceOnUse" x="51" y="47" width="156" height="111">
<path d="M197.976 72.7997C186.212 52.1405 164.36 47.3442 130.117 47.3442H127.906C93.6621 47.3442 71.8096 52.1407 60.0452 72.801C54.8037 81.0538 51.7522 91.2048 51.8967 102.37C51.7522 113.535 54.8035 123.686 60.0452 131.939C71.8096 152.599 93.6621 157.396 127.906 157.396H130.117C164.36 157.396 186.212 152.6 197.976 131.94C203.218 123.687 206.27 113.536 206.126 102.37C206.27 91.2042 203.219 81.0527 197.976 72.7997Z" fill="#FBFAFF"/>
<path d="M127.906 47.7612H130.116C164.361 47.7612 185.977 52.5697 197.614 73.0063L197.619 73.0151L197.624 73.0229C202.66 80.9511 205.661 90.6514 205.713 101.329L205.709 102.365V102.375C205.853 113.461 202.822 123.533 197.624 131.717L197.619 131.725L197.614 131.734C185.977 152.171 164.361 156.979 130.116 156.979H127.906C93.6615 156.979 72.0452 152.171 60.4074 131.733L60.4025 131.724L60.3967 131.715L59.9162 130.943C55.1712 123.161 52.3603 113.744 52.3098 103.412L52.3137 102.375V102.365C52.1702 91.2798 55.1992 81.2084 60.3967 73.0249L60.4025 73.0161L60.4074 73.0073C72.0452 52.5695 93.6614 47.7612 127.906 47.7612Z" stroke="#211651" stroke-opacity="0.2" stroke-width="0.833723"/>
</mask>
<g mask="url(#mask1_7022_4980)">
<g filter="url(#filter4_i_7022_4980)">
<path d="M173.069 66.3116C159.758 61.1964 154.174 63.3525 147.903 65.7738C145.501 66.7013 142.998 67.6678 139.922 68.2794C136.765 68.9068 133.311 69.7575 129.011 69.7575C124.711 69.7575 121.256 68.9068 118.1 68.2794C115.023 67.6678 112.52 66.7013 110.118 65.7738C103.847 63.3525 98.2639 61.1964 84.9528 66.3116M173.069 66.3116C186.789 72.9422 196.251 87.4142 195.214 104.686H206.13M173.069 66.3116L177.094 61.205L181.119 56.0983M84.9528 66.3116C71.2323 72.9422 61.7705 87.4142 62.8075 104.686H51.8917M84.9528 66.3116L80.9279 61.2049L76.903 56.0983L71.9536 47.2342" stroke="#5038BC" stroke-width="5.00234" stroke-linecap="round" stroke-linejoin="round"/>
</g>
</g>
<path d="M97.7455 105.705C97.7455 116.295 97.7455 124.881 103.165 124.881C108.584 124.881 108.584 116.295 108.584 105.705C108.584 95.1146 108.584 86.5294 103.165 86.5294C97.7455 86.5294 97.7455 95.1146 97.7455 105.705Z" fill="#33247A"/>
<path d="M146.102 105.705C146.102 116.295 146.102 124.881 151.521 124.881C156.941 124.881 156.941 116.295 156.941 105.705C156.941 95.1146 156.941 86.5294 151.521 86.5294C146.102 86.5294 146.102 95.1146 146.102 105.705Z" fill="#33247A"/>
<path d="M213.474 97.7357C213.474 105.756 215.812 112.257 210.536 112.257C207.69 112.257 205.135 110.366 203.385 107.366C202.315 105.53 201.545 103.28 201.195 100.793C201.056 99.8071 200.982 98.7844 200.982 97.7357C200.982 89.7157 205.26 83.2143 210.536 83.2143C215.812 83.2143 213.474 89.7157 213.474 97.7357Z" fill="#4A34AE"/>
<path d="M200.982 97.7357C200.982 89.7157 205.26 83.2143 210.536 83.2143L197.908 77.7878L198.902 100.793H201.195C201.056 99.8071 200.982 98.7844 200.982 97.7357Z" fill="#FBFAFF"/>
<path d="M198.902 121.581L210.536 112.257C207.69 112.257 205.135 110.366 203.385 107.366L198.902 109.353V121.581Z" fill="#FBFAFF"/>
<path d="M56.0885 121.581L44.4542 112.257C47.2998 112.257 49.8548 110.366 51.605 107.366L56.0885 109.353V121.581Z" fill="#CCCAD5"/>
<path d="M54.0077 97.7357C54.0077 89.7157 49.7305 83.2143 44.4542 83.2143L57.0821 77.7878L56.0885 100.793H53.7956C53.9346 99.8071 54.0077 98.7844 54.0077 97.7357Z" fill="#FBFAFF"/>
<path d="M41.5164 97.7357C41.5164 105.756 39.1779 112.257 44.4542 112.257C47.2998 112.257 49.8548 110.366 51.605 107.366C52.6756 105.53 53.4451 103.28 53.7956 100.793C53.9346 99.8071 54.0077 98.7844 54.0077 97.7357C54.0077 89.7157 49.7305 83.2143 44.4542 83.2143C39.1779 83.2143 41.5164 89.7157 41.5164 97.7357Z" fill="#4A34AE"/>
<path d="M188.256 109.062C189.293 91.791 179.831 77.3189 166.111 70.6884L161.108 71.5221C166.944 74.1623 175.699 81.5268 182.368 92.3652C188.01 101.533 187.544 107.804 188.256 109.062Z" fill="white"/>
<path opacity="0.3" d="M51.897 102.37C51.7525 113.535 54.8037 123.686 60.0454 131.939C71.8099 152.599 93.6623 157.396 127.906 157.396H130.117C142.246 157.396 152.821 156.794 161.944 155.098C143.463 152.251 102.582 144.39 86.9084 135.719C71.2344 127.048 58.7318 98.2013 54.4398 84.8617C52.7218 90.2842 51.8168 96.1707 51.897 102.37Z" fill="#AEABBF"/>
<defs>
<filter id="filter0_f_7022_4980" x="42.0645" y="189.561" width="181.961" height="43.2195" filterUnits="userSpaceOnUse" color-interpolation-filters="sRGB">
<feFlood flood-opacity="0" result="BackgroundImageFix"/>
<feBlend mode="normal" in="SourceGraphic" in2="BackgroundImageFix" result="shape"/>
<feGaussianBlur stdDeviation="6.01096" result="effect1_foregroundBlur_7022_4980"/>
</filter>
<filter id="filter1_f_7022_4980" x="26.7195" y="51.7966" width="202.878" height="194.062" filterUnits="userSpaceOnUse" color-interpolation-filters="sRGB">
<feFlood flood-opacity="0" result="BackgroundImageFix"/>
<feBlend mode="normal" in="SourceGraphic" in2="BackgroundImageFix" result="shape"/>
<feGaussianBlur stdDeviation="29.1803" result="effect1_foregroundBlur_7022_4980"/>
</filter>
<filter id="filter2_f_7022_4980" x="0.200619" y="0.655849" width="260.955" height="194.258" filterUnits="userSpaceOnUse" color-interpolation-filters="sRGB">
<feFlood flood-opacity="0" result="BackgroundImageFix"/>
<feBlend mode="normal" in="SourceGraphic" in2="BackgroundImageFix" result="shape"/>
<feGaussianBlur stdDeviation="29.1803" result="effect1_foregroundBlur_7022_4980"/>
</filter>
<filter id="filter3_i_7022_4980" x="62.7295" y="65.6863" width="132.562" height="83.8349" filterUnits="userSpaceOnUse" color-interpolation-filters="sRGB">
<feFlood flood-opacity="0" result="BackgroundImageFix"/>
<feBlend mode="normal" in="SourceGraphic" in2="BackgroundImageFix" result="shape"/>
<feColorMatrix in="SourceAlpha" type="matrix" values="0 0 0 0 0 0 0 0 0 0 0 0 0 0 0 0 0 0 127 0" result="hardAlpha"/>
<feOffset dy="0.833723"/>
<feGaussianBlur stdDeviation="6.25292"/>
<feComposite in2="hardAlpha" operator="arithmetic" k2="-1" k3="1"/>
<feColorMatrix type="matrix" values="0 0 0 0 0 0 0 0 0 0 0 0 0 0 0 0 0 0 0.12 0"/>
<feBlend mode="normal" in2="shape" result="effect1_innerShadow_7022_4980"/>
</filter>
<filter id="filter4_i_7022_4980" x="49.3906" y="44.7325" width="159.241" height="63.2878" filterUnits="userSpaceOnUse" color-interpolation-filters="sRGB">
<feFlood flood-opacity="0" result="BackgroundImageFix"/>
<feBlend mode="normal" in="SourceGraphic" in2="BackgroundImageFix" result="shape"/>
<feColorMatrix in="SourceAlpha" type="matrix" values="0 0 0 0 0 0 0 0 0 0 0 0 0 0 0 0 0 0 127 0" result="hardAlpha"/>
<feOffset dy="0.833723"/>
<feGaussianBlur stdDeviation="6.25292"/>
<feComposite in2="hardAlpha" operator="arithmetic" k2="-1" k3="1"/>
<feColorMatrix type="matrix" values="0 0 0 0 0 0 0 0 0 0 0 0 0 0 0 0 0 0 0.12 0"/>
<feBlend mode="normal" in2="shape" result="effect1_innerShadow_7022_4980"/>
</filter>
<radialGradient id="paint0_radial_7022_4980" cx="0" cy="0" r="1" gradientUnits="userSpaceOnUse" gradientTransform="translate(133.045 211.171) scale(78.9585 9.58782)">
<stop stop-color="#251A56"/>
<stop offset="0.965" stop-color="#33247A" stop-opacity="0.5"/>
</radialGradient>
<linearGradient id="paint1_linear_7022_4980" x1="198.41" y1="137.787" x2="201.432" y2="180.135" gradientUnits="userSpaceOnUse">
<stop offset="0.365471" stop-color="#F3F2F9"/>
<stop offset="0.985" stop-color="#DBD9E8"/>
</linearGradient>
<linearGradient id="paint2_linear_7022_4980" x1="59.6273" y1="137.663" x2="56.6049" y2="180.011" gradientUnits="userSpaceOnUse">
<stop offset="0.365471" stop-color="#F3F2F9"/>
<stop offset="0.985" stop-color="#DBD9E8"/>
</linearGradient>
<linearGradient id="paint3_linear_7022_4980" x1="59.6273" y1="137.663" x2="67.7316" y2="168.651" gradientUnits="userSpaceOnUse">
<stop offset="0.365471" stop-color="#F3F2F9"/>
<stop offset="0.985" stop-color="#DBD9E8"/>
</linearGradient>
<linearGradient id="paint4_linear_7022_4980" x1="91.3652" y1="170.944" x2="167.903" y2="170.944" gradientUnits="userSpaceOnUse">
<stop stop-color="#402C9D"/>
<stop offset="1" stop-color="#4B35AF"/>
</linearGradient>
</defs>
</svg>
